<svg xmlns="http://www.w3.org/2000/svg" viewBox="0 0 165 40"><title>tnw</title><path d="M72.48641,4.39346A15,15,0,0,0,61.87972,0H40V40H55V15h4.80865a5.00792,5.00792,0,0,1,3.539,1.46439l5.181,5.17761A5.00621,5.00621,0,0,1,70,25.17761V40H85V23.10654A15.00711,15.00711,0,0,0,80.5998,12.5Z" fill="#f42"/><path d="M150,0V14.82239a5.0061,5.0061,0,0,1-1.47141,3.53546L143.344,23.53547A4.99924,4.99924,0,0,1,139.8085,25h-7.20535A14.979,14.979,0,0,0,135,16.89331V0H120V14.82239a5.0061,5.0061,0,0,1-1.47141,3.53546L113.344,23.53547A4.99924,4.99924,0,0,1,109.8085,25H105V0H90V40h21.87974a15.00761,15.00761,0,0,0,10.61005-4.39346L127.5,30.59845V40h14.37973a15.00761,15.00761,0,0,0,10.61005-4.39346l8.11-8.10669A15.00656,15.00656,0,0,0,165,16.89331V0Z" fill="#f42"/><polygon points="0 15 10 15 10 40 25 40 25 15 35 15 35 0 0 0 0 15" fill="#f42"/></svg>